<svg id="Layer_1" data-name="Layer 1" xmlns="http://www.w3.org/2000/svg" viewBox="0 0 50 50"><defs><style>.cls-1{fill:#fff;}.cls-2{fill:none;stroke:#fff;stroke-width:2px;}</style></defs><title>personalized</title><path class="cls-1" d="M32.74,31.16a6.46,6.46,0,0,0-6.44,0,3.44,3.44,0,0,0-.88.77V29h0a9.39,9.39,0,0,0,8.22-9.63,10.12,10.12,0,0,0-2.3-6.47l-.56-.66-3,4.94-3-4.91-3,4.91-3.06-4.95-.54.67a10.13,10.13,0,0,0-2.31,6.47c0,5.06,3.59,9.22,8.22,9.63h.19v8.69h1.23V35.14a3.6,3.6,0,0,0,.88.76,6.39,6.39,0,0,0,6.44,0,2.64,2.64,0,0,0,0-4.74ZM17.66,19.83A8.23,8.23,0,0,1,19,15.27L22,20l2.77-4.49L27.5,20l2.92-4.71a8.15,8.15,0,0,1,1.37,4.56,7.48,7.48,0,0,1-6.47,7.7H24.13A7.49,7.49,0,0,1,17.66,19.83Zm14.41,15a5.28,5.28,0,0,1-5.11,0,1.7,1.7,0,0,1-.91-1.34A1.7,1.7,0,0,1,27,32.2a5.21,5.21,0,0,1,5.11,0,1.43,1.43,0,0,1,0,2.67Z"/><circle class="cls-2" cx="25" cy="25" r="23"/></svg>