<svg id="Layer_1" data-name="Layer 1" xmlns="http://www.w3.org/2000/svg" viewBox="0 0 50 50"><defs><style>.cls-1{fill:#fff;}.cls-2{fill:none;stroke:#fff;stroke-width:2px;}</style></defs><title>primium materlias</title><path class="cls-1" d="M36.16,13.44l-.1-.93-.88.3s-10.7,3.64-14.89,7.54a10.18,10.18,0,0,0-3.48,7.58,9.36,9.36,0,0,0,.71,3.65.54.54,0,0,0,.09.15.25.25,0,0,0,0,.07h0a7.14,7.14,0,0,0,.52.79,18.86,18.86,0,0,1-3.34,1,20.08,20.08,0,0,1-3.95.44.75.75,0,0,0-.74.75.74.74,0,0,0,.74.74,21.43,21.43,0,0,0,4.24-.47,22.14,22.14,0,0,0,4.12-1.35,7.42,7.42,0,0,0,4.93,1.94h0c2.43,0,5.2-1.26,7.94-4.43,3.65-4.25,4.16-10.77,4.18-14.63A27.69,27.69,0,0,0,36.16,13.44ZM31,30.3c-2.59,3-4.94,3.93-6.86,3.94a5.82,5.82,0,0,1-3.45-1.17A22.11,22.11,0,0,0,23,31.72c2.81-2,6.92-6.09,8.52-9.16a.75.75,0,0,0-.32-1,.74.74,0,0,0-1,.32h0c-1.36,2.67-5.47,6.8-8.07,8.63A17.28,17.28,0,0,1,19.55,32a5.67,5.67,0,0,1-.64-.89l-.06-.1h0s0-.06-.08-.2a8.31,8.31,0,0,1-.49-2.84,8.75,8.75,0,0,1,3-6.52c1.82-1.73,5.46-3.59,8.61-5,2-.88,3.84-1.58,4.89-2,0,.52.06,1.24.06,2.09C34.86,20.34,34.24,26.62,31,30.3Z"/><circle class="cls-2" cx="25" cy="25" r="23"/></svg>