<?xml version="1.0" encoding="utf-8"?>
<!-- Generator: Adobe Illustrator 22.1.0, SVG Export Plug-In . SVG Version: 6.00 Build 0)  -->
<svg version="1.1" xmlns="http://www.w3.org/2000/svg" xmlns:xlink="http://www.w3.org/1999/xlink" x="0px" y="0px"
	 viewBox="0 0 447 618.9" style="enable-background:new 0 0 447 618.9;" xml:space="preserve">
<g id="Layer_1">
	<g>
		<path d="M328.2,312.6c9,9.9,17.3,20.6,24.3,32.1c-10.5-30.9-16.3-58-17-103.4c-0.6-40.4-0.9-105.1,0-134.8
			c1-33.9-15.9-65.9-43.1-86C282.3,13.1,271.8,6.3,260.9,0c0,0,3.5,94.9,5,126.5C270.4,221.7,307.2,289.7,328.2,312.6z"/>
		<path d="M401.6,134.8c-7.5-23.2-26.1-45.2-41.9-63.7c-10.4,72.8-7.9,210.6,8.8,288c10.1,20.6,16.3,43.3,16.3,68
			c0,46.4-19.6,88.3-51.1,117.7c0,0,0,0,0,0c0,0,0,0,0,0c-28.8,26.9-67.5,43.4-110,43.4c-42.1,0-80.3-16.1-109-42.5
			c-0.9-0.7-1.8-1.4-2.7-2.1c-30.7-29.3-49.8-70.7-49.8-116.5c0-24.6,6.2-47.3,16.3-68c16.7-77.5,19.2-215.3,8.8-288
			c-15.8,18.6-34.4,40.5-41.9,63.7c-15.6,48.1,37.3,132.6-16.3,281.4c11.7,33.3,27.9,64.4,48.7,92.3c0.6,0.8,1.3,1.7,1.9,2.5
			c0.4,0.5,0.8,1.1,1.2,1.6c1.7,2.2,3.4,4.3,5.2,6.3c0.2,0.3,0.5,0.6,0.7,0.8c32,39.5,72.4,71.9,118.4,94.8
			c11.5,5.7,25.1,5.7,36.6,0c46.9-23.3,87.9-56.6,120.3-97.1c-0.4,0.5-0.8,1-1.2,1.4c-0.3,0.4-0.7,0.9-1.1,1.3
			c-0.3,0.4-0.6,0.7-0.9,1.1c0.3-0.4,0.6-0.7,0.9-1.1c0.4-0.4,0.8-0.8,1.1-1.3c1.8-2.1,3.5-4.2,5.2-6.3c0.4-0.5,0.8-1.1,1.2-1.6
			c0.6-0.8,1.3-1.7,1.9-2.5c20.8-27.9,37-59,48.7-92.3C364.3,267.4,417.2,182.9,401.6,134.8z M347.1,533.4c-1.1,1.1-2.3,2.1-3.4,3.2
			c-1.2,1.1-2.4,2.1-3.5,3.1c-1.2,1-2.4,2-3.6,3c1.2-1,2.4-2,3.6-3c1.2-1,2.4-2,3.5-3.1C344.8,535.5,345.9,534.5,347.1,533.4
			c0.9-0.8,1.7-1.6,2.6-2.5C348.8,531.8,348,532.6,347.1,533.4z"/>
		<path d="M427,184.1c-13.7,43.5-20.4,135.1-1.8,212.3c10.9-31.9,17.7-48.8,20.6-84.1C451.7,239.2,434.1,204.5,427,184.1z"/>
		<path d="M94.6,344.7c7-11.5,15.2-22.2,24.3-32.1c21-22.9,57.8-90.9,62.2-186.2C182.5,94.9,186,0,186,0
			c-10.9,6.3-21.4,13.1-31.4,20.5c-27.2,20.1-44.1,52.2-43.1,86c0.9,29.7,0.6,94.4,0,134.8C110.8,286.7,105,313.8,94.6,344.7z"/>
		<path d="M20,184.1c-7.1,20.5-24.7,55.2-18.8,128.2c2.9,35.3,9.7,52.1,20.6,84.1C40.4,319.1,33.7,227.6,20,184.1z"/>
	</g>
</g>
</svg>
