 <svg id="Layer_1" data-name="Layer 1" xmlns="http://www.w3.org/2000/svg" viewBox="0 0 478 628"><defs><style>.cls-1{stroke:#000;stroke-miterlimit:10;stroke-width:4.74px;}</style></defs><title>kinam_logo_ver_black</title><line class="cls-1" x1="317.57" y1="209.16" x2="317.57" y2="209.15"/><line class="cls-1" x1="317.57" y1="209.16" x2="317.57" y2="209.15"/><path d="M233.14,369.57a14.4,14.4,0,0,1-6.4-1.51,141.43,141.43,0,0,1-23.67-14.83,75.17,75.17,0,0,0,25.25,6.07l1.39.09,1.47.05,2,0c.66,0,1.31,0,2,0l1.45-.05,1.48-.09a75,75,0,0,0,25.15-6.08,143.08,143.08,0,0,1-23.7,14.86A14.49,14.49,0,0,1,233.14,369.57Z"/><path d="M217.45,360.24a78.17,78.17,0,0,0,10.73,1.43l1.17.07h.33l1.45.05c.68,0,1.35,0,2,0l2.07,0,1.43-.05h.1l1.25-.07h.19a77.91,77.91,0,0,0,10.59-1.42c-3.37,2.05-6.82,4-10.35,5.7a11.9,11.9,0,0,1-5.3,1.25,12.08,12.08,0,0,1-5.34-1.26q-5.3-2.62-10.35-5.7m-42.17-31.48a145.12,145.12,0,0,0,50.41,41.43,16.83,16.83,0,0,0,7.45,1.75,16.66,16.66,0,0,0,7.41-1.74,145.32,145.32,0,0,0,48.87-39.44,73.09,73.09,0,0,1-51.52,26.18h0l-1.39.08-1.43.05c-.63,0-1.25,0-1.89,0l-1.89,0-1.42-.05-1.38-.08a73.12,73.12,0,0,1-53.19-28.18Z"/><path d="M293.58,321.24A66.82,66.82,0,0,0,299,281.08l0-.17a67,67,0,0,0-31.61-45.76,34.34,34.34,0,0,1-16.7-29.32V119.17c3.47,2.13,6.86,4.42,10.13,6.83A45.09,45.09,0,0,1,279,162.17v52.6a37.13,37.13,0,0,0,8.65,23.71l10.18,12.21L291.61,236c-4.14-9.82-1.86-56-.21-79.4,4.47,5.85,8.93,12.41,11.91,19.51,4.88,11.64,3.68,21.13,1.86,35.5-1.79,14.2-4.25,33.66-1.58,64.2l4.73-.12c.58-16,5.73-40.86,9-55.12a144,144,0,0,1,1.39,19.93A141,141,0,0,1,293.58,321.24Z"/><path d="M253.06,123.48c2.16,1.42,4.28,2.9,6.35,4.42a42.72,42.72,0,0,1,17.17,34.27v52.6a39.54,39.54,0,0,0,9.2,25.23l14.35,17.22c.16,5.77.5,12,1.1,18.84l9.46-.24c.4-10.9,2.95-26,5.56-39,0,1.25.05,2.5.05,3.75a138.88,138.88,0,0,1-14.69,62.52,69.57,69.57,0,0,0-.2-22.15h0l-.07-.4a69.37,69.37,0,0,0-32.74-47.39,32,32,0,0,1-15.54-27.28V123.48m40.26,39.81a75.49,75.49,0,0,1,7.8,13.78c4.64,11.05,3.53,19.79,1.7,34.28A284.53,284.53,0,0,0,300,249.94l-6.25-14.82c-3.33-7.9-2.25-44.18-.47-71.83m-45-48.29v90.83a36.54,36.54,0,0,0,17.85,31.36,64.64,64.64,0,0,1,23.33,24,64,64,0,0,1,7.17,20.12h0a64.5,64.5,0,0,1-58.82,75.62A73.08,73.08,0,0,0,291,328.76c.17-.21.33-.43.5-.65s.51-.68.77-1A145,145,0,0,0,317.59,209S306.82,251.76,306,275.65c-5.32-60.88,9.74-76.09-.46-100.42-3.83-9.15-9.85-17.17-16-24.87,0,0-5.83,72.93-.08,86.6a34.68,34.68,0,0,1-8.1-22.19v-52.6a47.3,47.3,0,0,0-19.09-38.08A146.37,146.37,0,0,0,248.32,115Z"/><path d="M172.73,321.23a141,141,0,0,1-25.08-80.69A144,144,0,0,1,149,220.61c3.23,14.26,8.38,39.14,9,55.12l4.73.12a273,273,0,0,0-1.59-64.2c-1.81-14.37-3-23.86,1.87-35.5,3-7.1,7.44-13.66,11.9-19.51,1.65,23.35,3.93,69.58-.2,79.4l-6.18,14.65,10.18-12.21a37.13,37.13,0,0,0,8.65-23.71v-52.6A45.09,45.09,0,0,1,205.49,126c3.27-2.41,6.66-4.7,10.13-6.83v86.66a34.34,34.34,0,0,1-16.7,29.32A67.12,67.12,0,0,0,174.75,260a66,66,0,0,0-7.44,20.88l0,.21a66.33,66.33,0,0,0-1,11.49,67.08,67.08,0,0,0,1.45,13.88A65.64,65.64,0,0,0,172.73,321.23Z"/><path d="M213.25,123.48v82.35a32,32,0,0,1-15.54,27.28,69.73,69.73,0,0,0-16.26,13.44A69.08,69.08,0,0,0,165,280.5l-.07.41h0a68.86,68.86,0,0,0-1,11.7,70,70,0,0,0,.78,10.45A138.87,138.87,0,0,1,150,240.54c0-1.25,0-2.5,0-3.75,2.6,13,5.16,28.12,5.56,39l9.46.24c.59-6.81.94-13.07,1.09-18.84L180.53,240a39.48,39.48,0,0,0,9.2-25.23v-52.6A42.72,42.72,0,0,1,206.9,127.9c2.07-1.52,4.19-3,6.35-4.42M173,163.29c1.78,27.65,2.86,63.92-.47,71.83l-6.24,14.82a284.25,284.25,0,0,0-2.79-38.59c-1.83-14.49-2.93-23.23,1.7-34.28a76.69,76.69,0,0,1,7.8-13.78M218,115a146.22,146.22,0,0,0-13.9,9.09A47.28,47.28,0,0,0,185,162.17v52.6a34.68,34.68,0,0,1-8.1,22.19c5.76-13.67-.07-86.6-.07-86.6-6.15,7.7-12.16,15.72-16,24.87-10.2,24.33,4.87,39.54-.46,100.42-.87-23.89-11.63-66.65-11.63-66.65A145,145,0,0,0,174,327.09l.76,1,.5.65a73.12,73.12,0,0,0,53.19,28.18,64.47,64.47,0,0,1-59.81-64.33,63.56,63.56,0,0,1,1-11.29h0a63.5,63.5,0,0,1,7.17-20.12,64.49,64.49,0,0,1,23.32-24A36.54,36.54,0,0,0,218,205.83V115Z"/><path d="M137.83,510.06v-.35h1.48l2-2.51-8.87-12.48,8.77-7.77v-3l-3.51-1.11v-.18h10.62V483h-.36l-1.27.4-12.95,10.51,11.55,14.5.89.71,2.68.8v.14Zm-20,0v-.35h2.23l1.38-1.76V485.51l-.81-1.56-3.12-1.09v-.21H128V483h-2.34l-1.38,1.75V507.3l.83,1.59,3.11,1v.17Z"/><polygon points="150.67 480.28 135.3 480.28 135.3 484.55 137.03 485.11 138.81 485.68 138.81 485.88 126.67 496.64 126.67 485.57 126.84 485.37 130.39 485.37 130.39 480.28 115.14 480.28 115.14 484.55 118.96 485.88 119.07 486.09 119.07 507.13 118.91 507.34 115.46 507.34 115.46 512.43 130.61 512.43 130.61 508.16 126.78 506.93 126.67 506.72 126.67 502.25 131.74 497.87 138.32 507.13 138.16 507.34 135.46 507.34 135.46 512.43 151.21 512.43 151.21 508.16 147.27 506.98 146.94 506.72 137.03 494.27 147.81 485.52 148.29 485.37 150.67 485.37 150.67 480.28 150.67 480.28"/><polygon points="173.09 510.06 173.09 509.71 175.65 509.71 177.03 507.95 177.03 485.51 176.2 483.93 172.77 482.82 172.77 482.65 183.98 482.65 183.98 483 181.26 483 179.89 484.76 179.89 507.3 180.73 508.91 184.15 509.93 184.15 510.06 173.09 510.06"/><polygon points="186.35 480.28 170.4 480.28 170.4 484.55 174.55 485.88 174.66 486.09 174.66 507.13 174.49 507.34 170.72 507.34 170.72 512.43 186.52 512.43 186.52 508.16 182.37 506.93 182.26 506.72 182.26 485.57 182.42 485.37 186.35 485.37 186.35 480.28 186.35 480.28"/><polygon points="232.85 510.63 219.32 484.95 214.6 484.95 214.6 507.2 215.45 508.81 219.24 509.93 219.24 510.06 209.75 510.06 209.75 509.71 211.99 509.71 213.36 507.95 213.36 485.51 212.55 483.95 209.43 482.86 209.43 482.65 219.85 482.65 232.73 507.45 237.46 507.45 237.46 485.5 236.62 483.89 232.83 482.77 232.83 482.65 242.37 482.65 242.37 483 240.14 483 238.76 484.75 238.76 510.63 232.85 510.63"/><polygon points="244.74 480.28 230.46 480.28 230.46 484.55 234.98 485.88 235.09 486.09 235.09 505.07 234.18 505.07 221.29 480.28 207.06 480.28 207.06 484.55 210.88 485.88 210.99 486.09 210.99 507.13 210.83 507.34 207.38 507.34 207.38 512.43 221.61 512.43 221.61 508.16 217.08 506.82 216.98 506.62 216.98 487.32 217.89 487.32 231.43 513 241.13 513 241.13 485.57 241.29 485.37 244.74 485.37 244.74 480.28 244.74 480.28"/><polygon points="284.9 510.06 284.9 509.71 286.65 509.71 288.25 507.68 286.26 499.93 285.79 499.93 281.16 483.1 276.71 483.1 271.86 499.93 271.47 499.93 269.66 507.01 270.62 508.85 273.37 509.83 273.37 510.06 264.8 510.06 264.8 509.71 266.66 509.71 267.98 508.45 276.55 483.5 276.55 483.11 282.98 482.06 291.7 507.9 292.65 509.03 295.42 509.9 295.42 510.06 284.9 510.06"/><path d="M284.58,479.4l-10.4,1.7v2l-8.25,24-.22.21h-3.29v5.09h13.32v-4.27l-3.45-1.23-.11-.21,1.13-4.42h11.11l1.24,4.83-.16.21h-3v5.09h15.26v-4.27L294,507l-.22-.26-9.22-27.32Zm-9.65,18.42,3.56-12.35h.86l3.4,12.35Z"/><path d="M349.87,510.06v-.35h2.45l1.39-1.77-.25-24.84h-5l-5.2,15.17,4.28-15.62h12.27V483h-2l-1.59,1.53.35,22.79.81,1.57,3.11,1v.17Zm-32,0v-.35H320l1.37-1.74.34-22.44-.81-1.56-3-1.09v-.23h12.73l5.72,24.18h4l-.76,2.2h-3.83l-7.92-25.88h-5l-.43,24.14.82,1.56,2.8,1v.22Z"/><polygon points="362.22 480.28 345.77 480.28 339.14 504.46 338.23 504.46 332.51 480.28 315.53 480.28 315.53 484.55 319.25 485.88 319.36 486.09 319.03 507.13 318.87 507.34 315.47 507.34 315.47 512.43 328.41 512.43 328.41 508.16 324.91 506.93 324.8 506.72 325.18 485.52 326.09 485.52 334.02 511.4 341.3 511.4 350.19 485.47 351.11 485.47 351.33 507.13 351.16 507.34 347.5 507.34 347.5 512.43 362.86 512.43 362.86 508.16 359.04 506.93 358.93 506.72 358.6 485.52 358.77 485.37 362.22 485.37 362.22 480.28 362.22 480.28"/></svg>
