<?xml version="1.0" standalone="yes"?><svg xmlns="http://www.w3.org/2000/svg" id="Layer_1" data-name="Layer 1" viewBox="0 0 478 628" style="zoom: 2;"><title>kinam_logo_ver_black</title><path d="M233.14,369.57 a14.4,14.4 0 0 1 -6.4,-1.51 a141.43,141.43 0 0 1 -23.67,-14.83 a75.17,75.17 0 0 0 25.25,6.07 l1.39,.09 l1.47,.05 l2,0 c.66,0 1.31,0 2,0 l1.45,-.05 l1.48,-.09 a75,75 0 0 0 25.15,-6.08 a143.08,143.08 0 0 1 -23.7,14.86 A14.49,14.49 0 0 1 233.14,369.57  Z "></path><path d="M216.102371,360.23999 a78.17,78.17 0 0 0 10.73,1.43 l1.17,.07 h.33 l1.45,.05 c.68,0 1.35,0 2,0 l2.07,0 l1.43,-.05 h.1 l1.25,-.07 h.19 a77.91,77.91 0 0 0 10.59,-1.42 c-3.37,2.05 -6.82,4 -10.35,5.7 a11.9,11.9 0 0 1 -5.3,1.25 a12.08,12.08 0 0 1 -5.34,-1.26 q-5.3,-2.62 -10.35,-5.7 m-42.17,-31.48 a145.12,145.12 0 0 0 50.41,41.43 a16.83,16.83 0 0 0 7.45,1.75 a16.66,16.66 0 0 0 7.41,-1.74 a145.32,145.32 0 0 0 48.87,-39.44 a73.09,73.09 0 0 1 -51.52,26.18 h0 l-1.39,.08 l-1.43,.05 c-.63,0 -1.25,0 -1.89,0 l-1.89,0 l-1.42,-.05 l-1.38,-.08 a73.12,73.12 0 0 1 -53.19,-28.18  Z "></path><path d="M293.58,321.24 A66.82,66.82 0 0 0 299,281.08 l0,-.17 a67,67 0 0 0 -31.61,-45.76 a34.34,34.34 0 0 1 -16.7,-29.32 V119.17 c3.47,2.13 6.86,4.42 10.13,6.83 A45.09,45.09 0 0 1 279,162.17 v52.6 a37.13,37.13 0 0 0 8.65,23.71 l10.18,12.21 L291.61,236 c-4.14,-9.82 -1.86,-56 -.21,-79.4 c4.47,5.85 8.93,12.41 11.91,19.51 c4.88,11.64 3.68,21.13 1.86,35.5 c-1.79,14.2 -4.25,33.66 -1.58,64.2 l4.73,-.12 c.58,-16 5.73,-40.86 9,-55.12 a144,144 0 0 1 1.39,19.93 A141,141 0 0 1 293.58,321.24  Z "></path><path d="M251.712372,123.480003 c2.16,1.42 4.28,2.9 6.35,4.42 a42.72,42.72 0 0 1 17.17,34.27 v52.6 a39.54,39.54 0 0 0 9.2,25.23 l14.35,17.22 c.16,5.77 .5,12 1.1,18.84 l9.46,-.24 c.4,-10.9 2.95,-26 5.56,-39 c0,1.25 .05,2.5 .05,3.75 a138.88,138.88 0 0 1 -14.69,62.52 a69.57,69.57 0 0 0 -.2,-22.15 h0 l-.07,-.4 a69.37,69.37 0 0 0 -32.74,-47.39 a32,32 0 0 1 -15.54,-27.28 V123.480003 m40.26,39.81 a75.49,75.49 0 0 1 7.8,13.78 c4.64,11.05 3.53,19.79 1.7,34.28 A284.53,284.53 0 0 0 298.652374,249.940002 l-6.25,-14.82 c-3.33,-7.9 -2.25,-44.18 -.47,-71.83 m-45,-48.29 v90.83 a36.54,36.54 0 0 0 17.85,31.36 a64.64,64.64 0 0 1 23.33,24 a64,64 0 0 1 7.17,20.12 h0 a64.5,64.5 0 0 1 -58.82,75.62 A73.08,73.08 0 0 0 289.652374,328.76001 c.17,-.21 .33,-.43 .5,-.65 s.51,-.68 .77,-1 A145,145 0 0 0 316.242371,209 S305.472382,251.759995 304.652374,275.649994 c-5.32,-60.88 9.74,-76.09 -.46,-100.42 c-3.83,-9.15 -9.85,-17.17 -16,-24.87 c0,0 -5.83,72.93 -.08,86.6 a34.68,34.68 0 0 1 -8.1,-22.19 v-52.6 a47.3,47.3 0 0 0 -19.09,-38.08 A146.37,146.37 0 0 0 246.972382,115  Z "></path><path d="M172.73,321.23 a141,141 0 0 1 -25.08,-80.69 A144,144 0 0 1 149,220.61 c3.23,14.26 8.38,39.14 9,55.12 l4.73,.12 a273,273 0 0 0 -1.59,-64.2 c-1.81,-14.37 -3,-23.86 1.87,-35.5 c3,-7.1 7.44,-13.66 11.9,-19.51 c1.65,23.35 3.93,69.58 -.2,79.4 l-6.18,14.65 l10.18,-12.21 a37.13,37.13 0 0 0 8.65,-23.71 v-52.6 A45.09,45.09 0 0 1 205.49,126 c3.27,-2.41 6.66,-4.7 10.13,-6.83 v86.66 a34.34,34.34 0 0 1 -16.7,29.32 A67.12,67.12 0 0 0 174.75,260 a66,66 0 0 0 -7.44,20.88 l0,.21 a66.33,66.33 0 0 0 -1,11.49 a67.08,67.08 0 0 0 1.45,13.88 A65.64,65.64 0 0 0 172.73,321.23  Z "></path><path d="M211.902359,123.480003 v82.35 a32,32 0 0 1 -15.54,27.28 a69.73,69.73 0 0 0 -16.26,13.44 A69.08,69.08 0 0 0 163.652359,280.5 l-.07,.41 h0 a68.86,68.86 0 0 0 -1,11.7 a70,70 0 0 0 .78,10.45 A138.87,138.87 0 0 1 148.652359,240.539993 c0,-1.25 0,-2.5 0,-3.75 c2.6,13 5.16,28.12 5.56,39 l9.46,.24 c.59,-6.81 .94,-13.07 1.09,-18.84 L179.182358,240 a39.48,39.48 0 0 0 9.2,-25.23 v-52.6 A42.72,42.72 0 0 1 205.552353,127.900002 c2.07,-1.52 4.19,-3 6.35,-4.42 M171.652359,163.289993 c1.78,27.65 2.86,63.92 -.47,71.83 l-6.24,14.82 a284.25,284.25 0 0 0 -2.79,-38.59 c-1.83,-14.49 -2.93,-23.23 1.7,-34.28 a76.69,76.69 0 0 1 7.8,-13.78 M216.652359,115 a146.22,146.22 0 0 0 -13.9,9.09 A47.28,47.28 0 0 0 183.652359,162.169998 v52.6 a34.68,34.68 0 0 1 -8.1,22.19 c5.76,-13.67 -.07,-86.6 -.07,-86.6 c-6.15,7.7 -12.16,15.72 -16,24.87 c-10.2,24.33 4.87,39.54 -.46,100.42 c-.87,-23.89 -11.63,-66.65 -11.63,-66.65 A145,145 0 0 0 172.652359,327.089996 l.76,1 l.5,.65 a73.12,73.12 0 0 0 53.19,28.18 a64.47,64.47 0 0 1 -59.81,-64.33 a63.56,63.56 0 0 1 1,-11.29 h0 a63.5,63.5 0 0 1 7.17,-20.12 a64.49,64.49 0 0 1 23.32,-24 A36.54,36.54 0 0 0 216.652359,205.830002 V115  Z "></path></svg>
