<svg xmlns="http://www.w3.org/2000/svg" viewBox="0 0 247.72 33.6"><title>cropAsset 2</title><g id="Layer_2" data-name="Layer 2"><g id="Layer_1-2" data-name="Layer 1"><polygon points="35.53 0.88 20.16 0.88 20.16 5.15 21.89 5.71 23.67 6.28 23.67 6.48 11.53 17.24 11.53 6.17 11.7 5.97 15.25 5.97 15.25 0.88 0 0.88 0 5.15 3.82 6.48 3.93 6.69 3.93 27.73 3.77 27.94 0.32 27.94 0.32 33.03 15.47 33.03 15.47 28.76 11.64 27.53 11.53 27.32 11.53 22.85 16.6 18.47 23.18 27.73 23.02 27.94 20.32 27.94 20.32 33.03 36.07 33.03 36.07 28.76 32.13 27.58 31.8 27.32 21.89 14.87 32.67 6.12 33.15 5.97 35.53 5.97 35.53 0.88 35.53 0.88"/><polygon points="247.08 0.88 230.63 0.88 224 25.06 223.09 25.06 217.37 0.88 200.39 0.88 200.39 5.15 204.11 6.48 204.22 6.69 203.89 27.73 203.73 27.94 200.33 27.94 200.33 33.03 213.27 33.03 213.27 28.76 209.77 27.53 209.66 27.32 210.04 6.12 210.95 6.12 218.88 32 226.16 32 235.05 6.07 235.97 6.07 236.19 27.73 236.02 27.94 232.36 27.94 232.36 33.03 247.72 33.03 247.72 28.76 243.9 27.53 243.79 27.32 243.46 6.12 243.63 5.97 247.08 5.97 247.08 0.88 247.08 0.88"/><path d="M169.44,0,159,1.7v2l-8.25,24-.22.21h-3.29V33H160.6V28.73l-3.45-1.23-.11-.21,1.13-4.42h11.11l1.24,4.83-.16.21h-3V33h15.26V28.73l-3.76-1.13-.22-.26L169.42,0Zm-9.65,18.42,3.56-12.35h.86l3.4,12.35Z"/><polygon points="129.6 0.88 115.32 0.88 115.32 5.15 119.84 6.48 119.95 6.69 119.95 25.67 119.04 25.67 106.15 0.88 91.92 0.88 91.92 5.15 95.74 6.48 95.85 6.69 95.85 27.73 95.69 27.94 92.24 27.94 92.24 33.03 106.47 33.03 106.47 28.76 101.94 27.42 101.84 27.22 101.84 7.92 102.75 7.92 116.29 33.6 125.99 33.6 125.99 6.17 126.15 5.97 129.6 5.97 129.6 0.88 129.6 0.88"/><polygon points="71.21 0.88 55.26 0.88 55.26 5.15 59.41 6.48 59.52 6.69 59.52 27.73 59.35 27.94 55.58 27.94 55.58 33.03 71.38 33.03 71.38 28.76 67.23 27.53 67.12 27.32 67.12 6.17 67.28 5.97 71.21 5.97 71.21 0.88 71.21 0.88"/></g></g></svg>
