<?xml version="1.0" encoding="utf-8"?>
<!-- Generator: Adobe Illustrator 23.0.3, SVG Export Plug-In . SVG Version: 6.00 Build 0)  -->
<svg version="1.1" id="Layer_1" xmlns="http://www.w3.org/2000/svg" xmlns:xlink="http://www.w3.org/1999/xlink" x="0px" y="0px"
	 viewBox="0 0 1798 606" style="enable-background:new 0 0 1798 606;" xml:space="preserve">
<style type="text/css">
	.st0{fill:#FFFFFF;}
</style>
<g>
	<path class="st0" d="M312.8,462.8c-24.5,31.1-55.5,56.7-90.9,74.6c-8.7,4.4-18.9,4.4-27.6,0c-36.9-18.6-68.9-45.5-93.8-78.4
		c7.3,9.6,15.8,18.1,25.3,25.4c21.7,20.3,50.6,32.6,82.4,32.6c32.1,0,61.4-12.7,83.2-33.3c0,0,0,0,0,0c0.7-0.5,1.4-1.1,2-1.6
		c0.9-0.8,1.8-1.5,2.7-2.3c0.9-0.8,1.8-1.6,2.7-2.4c0.9-0.8,1.7-1.6,2.6-2.4c0.7-0.6,1.3-1.2,2-1.9c1-1,2.1-2.1,3.1-3.2
		c0.8-0.9,1.6-1.7,2.4-2.6c0.7-0.8,1.4-1.6,2.1-2.4c0.3-0.3,0.6-0.6,0.8-1C312.2,463.5,312.5,463.1,312.8,462.8"/>
	<path class="st0" d="M287.2,305.3c-15.9-17.6-43.7-69.9-47-143.1c-1.1-24.3-3.8-97.2-3.8-97.2c8.2,4.8,16.1,10.1,23.8,15.8
		c20.6,15.5,33.3,40.1,32.6,66.1c-0.7,22.8-0.4,72.6,0,103.6c0.5,34.9,4.9,55.7,12.8,79.5C300.3,321.1,294,312.9,287.2,305.3"/>
	<path class="st0" d="M355,384.9c-8.9,25.6-21.1,49.5-36.9,70.9c-0.5,0.6-0.9,1.3-1.4,1.9c-0.3,0.4-0.6,0.8-0.9,1.2
		c-1.3,1.7-2.6,3.3-3.9,4.9c-0.3,0.3-0.5,0.7-0.8,1c-0.7,0.8-1.4,1.6-2.1,2.4c-0.8,0.9-1.6,1.8-2.4,2.6c-1,1.1-2,2.1-3.1,3.2
		c-0.7,0.6-1.3,1.3-2,1.9c-0.9,0.8-1.7,1.6-2.6,2.4c-0.9,0.8-1.8,1.6-2.7,2.4c-0.9,0.8-1.8,1.6-2.7,2.3c-0.7,0.5-1.4,1.1-2,1.6
		c23.8-22.6,38.6-54.8,38.6-90.5c0-18.9-4.7-36.4-12.3-52.2c-12.6-59.6-14.5-165.5-6.7-221.4c11.9,14.3,26,31.1,31.7,49
		C354.5,205.6,314.5,270.5,355,384.9"/>
	<path class="st0" d="M376.1,305c-2.2,27.1-7.3,40.1-15.6,64.6c-14-59.3-9-129.7,1.4-163.1C367.3,222.2,380.6,248.9,376.1,305"/>
	<path class="st0" d="M128.9,305.3c15.9-17.6,43.7-69.9,47-143.1c1.1-24.3,3.8-97.2,3.8-97.2c-8.2,4.8-16.1,10.1-23.8,15.8
		c-20.6,15.5-33.3,40.1-32.6,66.1c0.7,22.8,0.4,72.6,0,103.6c-0.5,34.9-4.9,55.7-12.8,79.5C115.9,321.1,122.1,312.9,128.9,305.3"/>
	<path class="st0" d="M61.1,384.9c8.9,25.6,21.1,49.5,36.9,70.9c0.5,0.6,0.9,1.3,1.4,1.9c0.3,0.4,0.6,0.8,0.9,1.2
		c1.3,1.7,2.6,3.3,3.9,4.9c0.3,0.3,0.5,0.7,0.8,1c0.7,0.8,1.4,1.6,2.1,2.4c0.8,0.9,1.6,1.8,2.4,2.6c1,1.1,2,2.1,3.1,3.2
		c0.7,0.6,1.3,1.3,2,1.9c0.9,0.8,1.7,1.6,2.6,2.4c0.9,0.8,1.8,1.6,2.7,2.4c0.9,0.8,1.8,1.6,2.7,2.3c0.7,0.5,1.4,1.1,2,1.6
		c-23.8-22.6-38.6-54.8-38.6-90.5c0-18.9,4.7-36.4,12.3-52.2c12.6-59.6,14.5-165.5,6.7-221.4c-11.9,14.3-26,31.1-31.7,49
		C61.7,205.6,101.6,270.5,61.1,384.9"/>
	<path class="st0" d="M40,305c2.2,27.1,7.3,40.1,15.6,64.6c14-59.3,9-129.7-1.4-163.1C48.9,222.2,35.5,248.9,40,305"/>
	<polygon class="st0" points="608,386.7 608,360.9 621.6,360.9 622.5,359.8 589.2,313 563.5,335.1 563.5,357.8 564.1,358.8 
		583.4,365.1 583.4,386.7 506.8,386.7 506.8,360.9 524.2,360.9 525.1,359.8 525.1,253.3 524.5,252.3 505.1,245.5 505.1,223.9 
		582.4,223.9 582.4,249.7 564.3,249.7 563.5,250.7 563.5,306.7 624.9,252.3 624.9,251.3 615.9,248.4 607.2,245.5 607.2,223.9 
		684.9,223.9 684.9,249.7 672.9,249.7 670.5,250.5 615.9,294.7 666.1,357.8 667.8,359.1 687.7,365.1 687.7,386.7 	"/>
	<polygon class="st0" points="786.4,386.7 786.4,360.9 805.6,360.9 806.4,359.8 806.4,253.3 805.8,252.3 784.8,245.5 784.8,223.9 
		865.6,223.9 865.6,249.7 845.7,249.7 844.8,250.7 844.8,357.8 845.4,358.8 866.4,365.1 866.4,386.7 	"/>
	<polygon class="st0" points="1161.1,249.7 1143.6,249.7 1142.8,250.7 1142.8,389.5 1093.7,389.5 1025.2,259.6 1020.6,259.6 
		1020.6,357.2 1021.1,358.3 1044,365.1 1044,386.7 972,386.7 972,360.9 989.4,360.9 990.3,359.8 990.3,253.3 989.7,252.3 
		970.3,245.5 970.3,223.9 1042.4,223.9 1107.6,349.4 1112.2,349.4 1112.2,253.3 1111.7,252.3 1088.8,245.5 1088.8,223.9 
		1161.1,223.9 	"/>
	<path class="st0" d="M1336.2,250.2h-4.4l-18,62.5h39.6L1336.2,250.2z M1352.3,386.7v-25.8h15l0.8-1l-6.3-24.5h-56.2l-5.7,22.4
		l0.5,1l17.5,6.2v21.6h-67.4v-25.8h16.6l1.1-1l41.7-121.6v-10.2l52.7-8.6l46.7,138.3l1.1,1.3l19.1,6v21.6H1352.3z"/>
	<polygon class="st0" points="1672.4,223.9 1638.8,346.3 1634.2,346.3 1605.3,223.9 1519.3,223.9 1519.3,245.5 1538.2,252.3 
		1538.7,253.3 1537.1,359.8 1536.2,360.9 1519,360.9 1519,386.7 1584.5,386.7 1584.5,365.1 1566.8,358.8 1566.3,357.8 1568.2,250.5 
		1572.8,250.5 1612.9,381.5 1649.7,381.5 1694.8,250.2 1699.4,250.2 1700.5,359.8 1699.7,360.9 1681.1,360.9 1681.1,386.7 
		1758.9,386.7 1758.9,365.1 1739.5,358.8 1739,357.8 1737.3,250.5 1738.1,249.7 1755.6,249.7 1755.6,223.9 	"/>
</g>
</svg>
