<svg 
 xmlns="http://www.w3.org/2000/svg"
 xmlns:xlink="http://www.w3.org/1999/xlink"
 width="15.399cm" height="3.828cm">
<path fill-rule="evenodd"  stroke="rgb(0, 0, 0)" stroke-width="1px" stroke-linecap="butt" stroke-linejoin="miter" fill="rgb(255, 255, 255)"
 d="M425.500,66.500 L24.500,66.500 C18.977,66.500 14.500,62.023 14.500,56.500 L14.500,53.500 C14.500,47.977 18.977,43.500 24.500,43.500 L425.500,43.500 C431.023,43.500 435.500,47.977 435.500,53.500 L435.500,56.500 C435.500,62.023 431.023,66.500 425.500,66.500 ZM305.500,23.500 L77.500,23.500 C71.977,23.500 67.500,19.023 67.500,13.500 L67.500,10.500 C67.500,4.977 71.977,0.500 77.500,0.500 L305.500,0.500 C311.023,0.500 315.500,4.977 315.500,10.500 L315.500,13.500 C315.500,19.023 311.023,23.500 305.500,23.500 ZM383.500,94.500 L383.500,97.500 C383.500,103.023 379.023,107.500 373.500,107.500 L10.500,107.500 C4.977,107.500 0.500,103.023 0.500,97.500 L0.500,94.500 C0.500,88.977 4.977,84.500 10.500,84.500 L373.500,84.500 C379.023,84.500 383.500,88.977 383.500,94.500 Z"/>
</svg>