<?xml version="1.0" encoding="utf-8"?>
<!-- Generator: Adobe Illustrator 23.0.3, SVG Export Plug-In . SVG Version: 6.00 Build 0)  -->
<svg version="1.1" id="Layer_1" xmlns="http://www.w3.org/2000/svg" xmlns:xlink="http://www.w3.org/1999/xlink" x="0px" y="0px"
	 viewBox="0 0 800 800" style="enable-background:new 0 0 800 800;" xml:space="preserve">
<style type="text/css">
	.st0{fill:#FFFFFF;}
</style>
<path class="st0" d="M400.3,73.6c-180.4,0-327.1,146.7-327.1,327.1c0,180.4,146.7,327.1,327.1,327.1s327.1-146.7,327.1-327.1
	C727.4,220.4,580.6,73.6,400.3,73.6 M400.3,773.5c-205.5,0-372.8-167.2-372.8-372.7C27.5,195.2,194.7,28,400.3,28
	C605.8,28,773,195.2,773,400.8C773,606.3,605.8,773.5,400.3,773.5"/>
<path class="st0" d="M293,400.8v-126c0-17.3,17.8-28.1,32.8-19.6l110.9,63.2l109.4,62.7c15.1,8.7,15,30.5-0.1,39.2l-110.2,62.8
	L326,546.3c-15,8.6-32.9-2.3-32.9-19.6V400.8z"/>
</svg>
